<svg width="32" height="32" viewBox="0 0 32 32" fill="none" xmlns="http://www.w3.org/2000/svg">
  <!-- Background Circle with Gradient -->
  <circle cx="16" cy="16" r="15" fill="url(#gradient1)" stroke="url(#gradient2)" stroke-width="2"/>
  
  <!-- Book/Story Element -->
  <path d="M8 10C8 9.44772 8.44772 9 9 9H23C23.5523 9 24 9.44772 24 10V20C24 20.5523 23.5523 21 23 21H9C8.44772 21 8 20.5523 8 20V10Z" fill="white" fill-opacity="0.9"/>
  
  <!-- Pages/Lines representing story content -->
  <line x1="11" y1="12" x2="21" y2="12" stroke="#4B5563" stroke-width="1.5" stroke-linecap="round"/>
  <line x1="11" y1="15" x2="19" y2="15" stroke="#4B5563" stroke-width="1.2" stroke-linecap="round"/>
  <line x1="11" y1="18" x2="20" y2="18" stroke="#4B5563" stroke-width="1.2" stroke-linecap="round"/>
  
  <!-- AI Neural Network Dots -->
  <circle cx="12" cy="6" r="1.5" fill="#3B82F6" opacity="0.8"/>
  <circle cx="20" cy="6" r="1.5" fill="#3B82F6" opacity="0.8"/>
  <circle cx="16" cy="4" r="1.5" fill="#3B82F6" opacity="0.8"/>
  
  <!-- Connecting lines for AI network -->
  <line x1="12" y1="6" x2="16" y2="4" stroke="#3B82F6" stroke-width="1" opacity="0.6"/>
  <line x1="16" y1="4" x2="20" y2="6" stroke="#3B82F6" stroke-width="1" opacity="0.6"/>
  <line x1="12" y1="6" x2="20" y2="6" stroke="#3B82F6" stroke-width="1" opacity="0.4"/>
  
  <!-- Sparkle/Magic element -->
  <path d="M26 8L27 9L26 10L25 9Z" fill="#FBBF24" opacity="0.9"/>
  <path d="M6 24L7 25L6 26L5 25Z" fill="#FBBF24" opacity="0.9"/>
  
  <!-- Pen/Writing element -->
  <path d="M22 22L25 25L24 26L21 23Z" fill="#6B7280" opacity="0.8"/>
  
  <!-- Gradients -->
  <defs>
    <linearGradient id="gradient1" x1="0%" y1="0%" x2="100%" y2="100%">
      <stop offset="0%" style="stop-color:#6B7280;stop-opacity:1" />
      <stop offset="100%" style="stop-color:#374151;stop-opacity:1" />
    </linearGradient>
    <linearGradient id="gradient2" x1="0%" y1="0%" x2="100%" y2="100%">
      <stop offset="0%" style="stop-color:#9CA3AF;stop-opacity:1" />
      <stop offset="100%" style="stop-color:#4B5563;stop-opacity:1" />
    </linearGradient>
  </defs>
</svg>
